<?xml version="1.0" encoding="UTF-8" standalone="no"?>
<!DOCTYPE svg PUBLIC "-//W3C//DTD SVG 1.1//EN" "http://www.w3.org/Graphics/SVG/1.1/DTD/svg11.dtd">
<svg width="100%" height="100%" viewBox="0 0 450 450" version="1.1" xmlns="http://www.w3.org/2000/svg" xmlns:xlink="http://www.w3.org/1999/xlink" xml:space="preserve" xmlns:serif="http://www.serif.com/" style="fill-rule:evenodd;clip-rule:evenodd;stroke-linecap:round;stroke-linejoin:round;stroke-miterlimit:1.5;">
    <g id="White-Logo-Curves-Group" serif:id="White Logo Curves Group" transform="matrix(1,0,0,1,-525,-431.72)">
        <g id="White-Star" serif:id="White Star" transform="matrix(1.05551,-1.11022e-16,0,1.05551,-75.913,317.52)">
            <path d="M782.479,129.557L787.402,163.208L794.406,129.928L797.227,163.82L806.288,131.04L806.996,165.041L818.077,132.889L816.67,166.868L829.728,135.466L826.211,169.293L841.197,138.763L835.584,172.306L852.438,142.767L844.751,175.896L863.409,147.462L853.677,180.048L874.066,152.83L862.327,184.748L884.369,158.85L870.669,189.977L894.278,165.499L878.669,195.714L903.755,172.751L886.298,201.937L912.762,180.578L893.524,208.622L921.266,188.95L900.321,215.744L929.232,197.835L906.662,223.275L936.631,207.197L912.523,231.185L943.433,217.002L917.881,239.444L949.612,227.21L922.714,248.021L955.145,237.783L927.005,256.881L960.01,248.68L930.738,265.991L964.188,259.857L933.896,275.315L967.663,271.273L936.469,284.818L970.422,282.883L938.446,294.462L972.454,294.642L939.819,304.211L973.75,306.504L940.584,314.026L974.307,318.424L940.737,323.869L974.121,330.356L940.278,333.703L973.194,342.253L939.208,343.49L971.529,354.069L937.532,353.191L969.133,365.759L935.256,362.769L966.015,377.278L932.389,372.187L962.186,388.58L928.942,381.409L957.663,399.622L924.929,390.398L952.461,410.362L920.364,399.121L946.602,420.758L915.266,407.543L940.108,430.769L909.654,415.632L933.004,440.357L903.55,423.356L925.318,449.485L896.978,430.685L917.079,458.118L889.963,437.592L908.32,466.221L882.532,444.05L899.073,473.765L874.714,450.033L889.376,480.718L866.539,455.518L879.265,487.056L858.038,460.485L868.779,492.753L849.246,464.913L857.96,497.786L840.195,468.786L846.848,502.138L830.921,472.09L835.488,505.79L821.459,474.81L823.922,508.729L811.847,476.936L812.197,510.943L802.121,478.461L800.356,512.424L792.319,479.379L788.446,513.166L782.479,479.685L776.513,513.166L772.639,479.379L764.603,512.424L762.837,478.461L752.762,510.943L753.111,476.936L741.036,508.729L743.499,474.81L729.47,505.79L734.037,472.09L718.11,502.138L724.763,468.786L706.999,497.786L715.712,464.913L696.179,492.753L706.92,460.485L685.694,487.056L698.42,455.518L675.583,480.718L690.245,450.033L665.885,473.765L682.427,444.05L656.639,466.221L674.996,437.592L647.879,458.118L667.98,430.685L639.64,449.485L661.408,423.356L631.954,440.357L655.304,415.632L624.85,430.769L649.692,407.543L618.356,420.758L644.594,399.121L612.497,410.362L640.03,390.398L607.296,399.622L636.016,381.409L602.772,388.58L632.569,372.187L598.944,377.278L629.702,362.769L595.825,365.759L627.426,353.191L593.429,354.069L625.75,343.49L591.764,342.253L624.681,333.703L590.837,330.356L624.221,323.869L590.652,318.424L624.375,314.026L591.208,306.504L625.139,304.211L592.505,294.642L626.513,294.462L594.536,282.883L628.49,284.818L597.295,271.273L631.062,275.315L600.77,259.857L634.221,265.991L604.948,248.68L637.953,256.881L609.813,237.783L642.244,248.021L615.346,227.21L647.078,239.444L621.525,217.002L652.435,231.185L628.328,207.197L658.296,223.275L635.726,197.835L664.637,215.744L643.693,188.95L671.434,208.622L652.196,180.578L678.661,201.937L661.203,172.751L686.289,195.714L670.68,165.499L694.29,189.977L680.589,158.85L702.631,184.748L690.892,152.83L711.282,180.048L701.55,147.462L720.208,175.896L712.521,142.767L729.375,172.306L723.762,138.763L738.747,169.293L735.23,135.466L748.289,166.868L746.882,132.889L757.962,165.041L758.671,131.04L767.731,163.82L770.552,129.928L777.557,163.208L782.479,129.557ZM625.184,318.961L625.336,328.745L626.096,338.5L627.462,348.19L629.426,357.775L631.983,367.22L635.123,376.488L638.832,385.542L643.097,394.349L647.901,402.873L653.226,411.082L659.051,418.944L665.354,426.429L672.11,433.507L679.292,440.152L686.874,446.338L694.826,452.04L703.117,457.236L711.715,461.908L720.587,466.035L729.698,469.603L739.013,472.598L748.497,475.008L758.112,476.823L767.821,478.038L777.587,478.646L787.372,478.646L797.138,478.038L806.847,476.823L816.462,475.008L825.945,472.598L835.261,469.603L844.372,466.035L853.244,461.908L861.841,457.236L870.132,452.04L878.084,446.338L885.666,440.152L892.849,433.507L899.604,426.429L905.907,418.944L911.732,411.082L917.057,402.873L921.861,394.349L926.126,385.542L929.836,376.488L932.975,367.22L935.532,357.775L937.497,348.19L938.862,338.5L939.622,328.745L939.774,318.961L939.318,309.187L938.255,299.46L936.589,289.818L934.327,280.298L931.477,270.938L928.051,261.772L924.062,252.837L919.525,244.168L914.458,235.797L908.881,227.757L902.814,220.08L896.282,212.795L889.309,205.93L881.923,199.512L874.153,193.565L866.027,188.113L857.579,183.177L848.84,178.776L839.844,174.926L830.626,171.643L821.222,168.939L811.668,166.826L802.002,165.31L792.259,164.398L782.479,164.094L772.699,164.398L762.957,165.31L753.29,166.826L743.736,168.939L734.332,171.643L725.114,174.926L716.119,178.776L707.38,183.177L698.931,188.113L690.806,193.565L683.035,199.512L675.649,205.93L668.677,212.795L662.145,220.08L656.078,227.757L650.5,235.797L645.433,244.168L640.896,252.837L636.907,261.772L633.481,270.938L630.631,280.298L628.369,289.818L626.704,299.46L625.64,309.187L625.184,318.961Z" style="fill:rgb(51,51,51);"/>
        </g>
        <g transform="matrix(1.16194,0,0,1.16194,-198.972,-58.3818)">
            <path d="M816.715,537.984C859.465,537.984 894.172,572.691 894.172,615.44C894.172,658.19 859.465,692.897 816.715,692.897C773.965,692.897 739.258,658.19 739.258,615.44C739.258,572.691 773.965,537.984 816.715,537.984ZM816.715,543.363C776.934,543.363 744.637,575.66 744.637,615.44C744.637,655.221 776.934,687.518 816.715,687.518C856.496,687.518 888.793,655.221 888.793,615.44C888.793,575.66 856.496,543.363 816.715,543.363Z" style="fill:rgb(51,51,51);"/>
        </g>
        <g transform="matrix(0.145242,0,0,0.145242,631.379,567.334)">
            <circle cx="816.715" cy="615.44" r="77.457" style="fill:rgb(51,51,51);stroke:rgb(51,51,51);stroke-width:14.34px;"/>
        </g>
        <g transform="matrix(10.4176,-2.63708,2.63708,10.4176,-8380.42,-2720.1)">
            <path d="M735.9,512.736L735.728,512.712L735.741,512.111L735.754,512.015L735.996,512.048L735.9,512.736ZM735.954,512.349C735.751,512.31 735.532,512.273 735.296,512.238C735.059,512.204 734.825,512.17 734.592,512.138L734.398,512.111C734.172,512.079 733.943,512.048 733.71,512.017C733.476,511.987 733.255,511.962 733.046,511.944L733.123,511.39C733.326,511.426 733.543,511.461 733.774,511.495C734.005,511.529 734.232,511.561 734.454,511.592L734.653,511.62C734.889,511.653 735.126,511.685 735.363,511.716C735.6,511.747 735.823,511.774 736.031,511.796L735.954,512.349ZM733.316,511.774L733.164,512.355L732.992,512.331L733.088,511.643L733.33,511.677L733.316,511.774ZM735.993,512.07L735.784,512.041L735.977,510.653L736.022,510.725L735.386,510.451L735.419,510.214L736.23,510.371L735.993,512.07ZM734.601,511.876L734.396,511.847L734.533,510.863L734.738,510.892L734.601,511.876ZM735.138,510.97L734.651,511.006L734.57,510.995L734.138,510.83L734.163,510.647L735.163,510.787L735.138,510.97ZM734.083,510.362L733.412,510.455L733.475,510.393L733.294,511.694L733.085,511.665L733.309,510.057L734.116,510.126L734.083,510.362Z" style="fill:rgb(51,51,51);fill-rule:nonzero;"/>
            <path d="M736.823,509.007C736.755,509.167 736.67,509.313 736.566,509.446C736.463,509.58 736.357,509.686 736.249,509.766L735.646,509.476L735.748,509.236L736.504,509.385L736.266,509.614L736.098,509.537C736.184,509.472 736.261,509.411 736.328,509.355C736.395,509.299 736.452,509.237 736.5,509.171C736.548,509.105 736.591,509.027 736.629,508.937C736.682,508.81 736.71,508.692 736.713,508.583C736.716,508.474 736.691,508.379 736.64,508.296C736.588,508.213 736.509,508.15 736.402,508.104C736.309,508.065 736.225,508.054 736.151,508.072C736.077,508.09 736.004,508.128 735.932,508.186C735.86,508.244 735.784,508.318 735.702,508.41L735.559,508.538C735.448,508.652 735.334,508.75 735.217,508.832C735.1,508.915 734.976,508.966 734.845,508.988C734.714,509.009 734.574,508.988 734.424,508.925C734.264,508.857 734.144,508.757 734.064,508.625C733.984,508.493 733.944,508.341 733.942,508.167C733.941,507.994 733.98,507.812 734.061,507.622C734.123,507.475 734.199,507.349 734.289,507.241C734.38,507.134 734.477,507.05 734.582,506.988L735.151,507.258L735.052,507.493L734.317,507.365L734.565,507.14L734.762,507.217C734.624,507.284 734.516,507.357 734.438,507.434C734.36,507.511 734.297,507.606 734.249,507.719C734.207,507.819 734.185,507.918 734.183,508.016C734.181,508.113 734.204,508.201 734.251,508.28C734.298,508.359 734.372,508.42 734.472,508.462C734.559,508.498 734.64,508.509 734.717,508.495C734.794,508.48 734.871,508.445 734.948,508.389C735.024,508.333 735.102,508.264 735.179,508.183L735.319,508.047C735.45,507.914 735.576,507.806 735.698,507.721C735.82,507.637 735.942,507.586 736.064,507.567C736.186,507.548 736.32,507.569 736.467,507.631C736.627,507.698 736.749,507.8 736.833,507.936C736.917,508.071 736.959,508.23 736.96,508.411C736.96,508.591 736.914,508.79 736.823,509.007Z" style="fill:rgb(51,51,51);fill-rule:nonzero;"/>
            <path d="M737.737,507.095L737.599,506.989L737.928,506.448L738.028,506.319L738.475,505.855L738.612,505.961L737.737,507.095ZM738.006,506.747C737.847,506.615 737.673,506.476 737.485,506.329C737.297,506.181 737.11,506.036 736.924,505.892L736.769,505.773C736.589,505.633 736.405,505.493 736.217,505.35C736.03,505.208 735.851,505.076 735.681,504.953L736.019,504.515C736.178,504.647 736.349,504.784 736.533,504.928C736.716,505.073 736.901,505.216 737.088,505.36L737.242,505.479C737.426,505.621 737.612,505.764 737.803,505.908C737.993,506.053 738.173,506.186 738.344,506.309L738.006,506.747ZM735.703,506.301L735.064,505.753L736.632,503.72L737.325,504.199L737.179,504.388L736.401,504.055L736.694,503.987L735.337,505.744L735.33,505.443L735.849,506.112L735.703,506.301Z" style="fill:rgb(51,51,51);fill-rule:nonzero;"/>
            <path d="M739.34,505.22L739.23,505.085L739.647,504.652L739.76,504.559L740.262,504.238L740.372,504.373L739.34,505.22ZM739.642,504.972C739.52,504.806 739.383,504.629 739.233,504.444C739.083,504.258 738.933,504.074 738.784,503.892L738.66,503.741C738.516,503.565 738.368,503.386 738.217,503.206C738.067,503.025 737.921,502.857 737.779,502.701L738.212,502.347C738.337,502.511 738.473,502.684 738.619,502.865C738.766,503.047 738.914,503.229 739.063,503.411L739.187,503.562C739.334,503.741 739.484,503.922 739.637,504.105C739.79,504.289 739.935,504.46 740.074,504.617L739.642,504.972ZM738.094,502.759L737.587,503.084L737.477,502.949L738.51,502.102L738.62,502.237L738.207,502.667L738.094,502.759Z" style="fill:rgb(51,51,51);fill-rule:nonzero;"/>
            <path d="M739.968,501.42L739.434,501.598L739.358,501.442L740.542,500.872L740.622,501.039L740.13,501.342L739.968,501.42ZM741.893,503.505L739.583,501.334L740.097,501.086L741.906,502.83L741.847,502.859L741.841,502.808L741.599,500.364L741.809,500.263L742.118,503.397L741.893,503.505ZM741.683,500.588L741.238,500.742L741.158,500.576L742.073,500.136L742.148,500.292L741.766,500.548L741.683,500.588Z" style="fill:rgb(51,51,51);fill-rule:nonzero;"/>
            <path d="M743.016,502.892L742.982,502.722L743.4,502.572L743.496,502.553L743.983,502.522L744.017,502.692L743.016,502.892ZM743.298,502.836L743.784,499.727L744.082,499.668L745.725,502.35L745.183,502.459L743.81,500.193L743.917,500.171L743.904,500.246L743.511,502.793L743.298,502.836ZM743.589,501.826L743.548,501.623L744.868,501.359L744.909,501.562L743.589,501.826ZM744.693,502.557L744.66,502.392L745.204,502.206L745.406,502.165L745.937,502.137L745.97,502.302L744.693,502.557Z" style="fill:rgb(51,51,51);fill-rule:nonzero;"/>
            <path d="M746.336,502.328L746.351,502.155L746.952,502.137L747.038,502.144L747.017,502.388L746.336,502.328ZM746.725,502.362C746.754,502.154 746.78,501.933 746.802,501.699C746.824,501.465 746.845,501.238 746.864,501.018L746.884,500.796C746.904,500.565 746.923,500.333 746.942,500.098C746.96,499.864 746.973,499.643 746.98,499.437L747.537,499.485C747.512,499.69 747.489,499.91 747.466,500.144C747.444,500.378 747.423,500.611 747.403,500.841L747.383,501.068C747.364,501.285 747.345,501.511 747.326,501.747C747.307,501.984 747.293,502.205 747.282,502.411L746.725,502.362ZM747.165,499.698L746.576,499.576L746.591,499.403L747.927,499.519L747.912,499.692L747.316,499.711L747.165,499.698ZM747.017,502.388L747.035,502.177L748.328,502.29L748.253,502.338L748.531,501.654L748.774,501.675L748.645,502.53L747.017,502.388Z" style="fill:rgb(51,51,51);fill-rule:nonzero;"/>
            <path d="M751.066,502.929L750.897,502.584L751.921,502.078L751.129,501.26L751.396,500.995L752.192,501.803L752.735,500.764L753.091,500.95L752.549,501.989L753.667,502.181L753.602,502.552L752.479,502.369L752.648,503.499L752.269,503.558L752.099,502.416L751.066,502.929Z" style="fill:rgb(51,51,51);fill-rule:nonzero;"/>
            <path d="M753.972,505.29L754.106,505.179L754.541,505.593L754.646,505.718L754.983,506.235L754.849,506.346L753.972,505.29ZM754.222,505.59C754.387,505.467 754.563,505.33 754.748,505.179C754.932,505.027 755.115,504.877 755.296,504.726L755.447,504.601C755.622,504.456 755.8,504.307 755.979,504.155C756.159,504.004 756.326,503.857 756.481,503.714L756.838,504.144C756.675,504.271 756.503,504.408 756.322,504.555C756.141,504.703 755.961,504.852 755.78,505.002L755.596,505.155C755.423,505.298 755.25,505.444 755.076,505.591C754.901,505.738 754.736,505.881 754.579,506.021L754.222,505.59ZM756.425,504.029L756.098,503.525L756.231,503.414L756.686,503.961L756.498,504.117L756.425,504.029ZM755.294,505.046L755.448,504.918L755.799,505.34C755.907,505.47 756.017,505.557 756.127,505.599C756.238,505.642 756.349,505.648 756.461,505.619C756.573,505.589 756.683,505.529 756.792,505.439C756.953,505.305 757.04,505.154 757.051,504.987C757.063,504.82 756.987,504.637 756.822,504.44L756.496,504.047L756.651,503.919L757.022,504.366C757.195,504.575 757.312,504.771 757.37,504.955C757.429,505.139 757.437,505.306 757.395,505.457C757.353,505.607 757.265,505.737 757.131,505.848C757.003,505.955 756.861,506.019 756.703,506.042C756.545,506.065 756.374,506.028 756.189,505.933C756.004,505.837 755.808,505.665 755.602,505.418L755.294,505.046Z" style="fill:rgb(51,51,51);fill-rule:nonzero;"/>
            <path d="M755.771,507.499L755.931,507.43L756.232,507.951L756.292,508.09L756.46,508.656L756.3,508.725L755.771,507.499ZM755.926,507.858C756.12,507.786 756.327,507.704 756.547,507.611C756.767,507.518 756.985,507.425 757.201,507.332L757.38,507.254C757.589,507.164 757.802,507.071 758.017,506.977C758.232,506.882 758.434,506.788 758.622,506.695L758.842,507.203C758.646,507.28 758.443,507.363 758.231,507.452C758.019,507.541 757.804,507.633 757.584,507.728L757.425,507.797C757.202,507.893 756.981,507.989 756.76,508.086C756.54,508.183 756.335,508.277 756.145,508.366L755.926,507.858ZM758.48,506.981L758.308,506.405L758.468,506.336L758.749,506.989L758.525,507.086L758.48,506.981ZM756.7,509.788C756.655,509.685 756.629,509.595 756.621,509.518C756.614,509.44 756.626,509.371 756.659,509.31C756.691,509.248 756.743,509.186 756.815,509.124L757.309,508.692C757.401,508.613 757.464,508.539 757.5,508.471C757.535,508.402 757.549,508.328 757.54,508.249C757.532,508.17 757.505,508.078 757.459,507.971L757.284,507.568L757.464,507.49L757.688,508.008C757.754,508.161 757.832,508.274 757.923,508.348C758.013,508.421 758.109,508.461 758.209,508.469C758.309,508.478 758.409,508.46 758.508,508.417C758.684,508.341 758.797,508.235 758.847,508.099C758.897,507.964 758.878,507.794 758.791,507.592L758.543,507.019L758.728,506.939L758.99,507.547C759.133,507.879 759.183,508.163 759.139,508.399C759.095,508.635 758.963,508.8 758.744,508.895C758.628,508.945 758.504,508.959 758.374,508.936C758.244,508.913 758.115,508.844 757.986,508.728C757.857,508.612 757.738,508.442 757.63,508.217L757.669,508.212C757.709,508.324 757.737,508.427 757.751,508.519C757.765,508.611 757.763,508.699 757.744,508.782C757.724,508.866 757.688,508.946 757.635,509.024C757.582,509.102 757.511,509.184 757.422,509.27L756.887,509.784L756.911,509.538L757.062,510.052L756.902,510.121C756.876,510.089 756.852,510.056 756.83,510.022C756.808,509.988 756.785,509.953 756.763,509.915C756.741,509.877 756.72,509.835 756.7,509.788Z" style="fill:rgb(51,51,51);fill-rule:nonzero;"/>
            <path d="M756.969,510.483L757.142,510.462L757.285,511.045L757.297,511.142L757.055,511.172L756.969,510.483ZM757.017,510.871C757.223,510.856 757.445,510.835 757.682,510.807C757.92,510.78 758.155,510.752 758.388,510.723L758.582,510.699C758.808,510.67 759.038,510.641 759.271,510.61C759.505,510.579 759.725,510.546 759.932,510.509L760.001,511.064C759.795,511.082 759.576,511.105 759.344,511.132C759.112,511.159 758.885,511.186 758.663,511.214L758.463,511.238C758.226,511.268 757.989,511.298 757.752,511.329C757.516,511.36 757.294,511.393 757.086,511.426L757.017,510.871ZM759.715,510.744L759.711,510.143L759.884,510.121L759.969,510.811L759.727,510.841L759.715,510.744ZM757.052,511.151L757.262,511.125L757.435,512.515L757.373,512.457L758.058,512.558L758.087,512.795L757.263,512.853L757.052,511.151ZM758.447,510.978L758.652,510.952L758.774,511.938L758.57,511.964L758.447,510.978ZM758.163,511.992L758.624,511.831L758.705,511.821L759.165,511.868L759.188,512.051L758.186,512.175L758.163,511.992ZM759.34,512.306L759.963,512.042L759.918,512.119L759.756,510.815L759.966,510.789L760.166,512.4L759.369,512.543L759.34,512.306Z" style="fill:rgb(51,51,51);fill-rule:nonzero;"/>
            <path d="M757.048,514.33C757.071,514.158 757.115,513.994 757.18,513.839C757.245,513.683 757.319,513.553 757.403,513.447L758.06,513.569L758.025,513.827L757.256,513.882L757.426,513.598L757.608,513.628C757.542,513.714 757.484,513.793 757.434,513.865C757.384,513.937 757.345,514.011 757.316,514.087C757.288,514.164 757.267,514.251 757.254,514.347C757.235,514.484 757.239,514.605 757.265,514.71C757.291,514.816 757.339,514.902 757.411,514.968C757.482,515.035 757.575,515.076 757.69,515.091C757.79,515.105 757.874,515.093 757.941,515.057C758.008,515.02 758.068,514.964 758.122,514.889C758.176,514.815 758.231,514.722 758.286,514.613L758.39,514.452C758.467,514.313 758.552,514.188 758.643,514.078C758.735,513.968 758.841,513.886 758.961,513.831C759.082,513.776 759.223,513.759 759.384,513.781C759.557,513.804 759.698,513.869 759.81,513.976C759.922,514.082 760.001,514.219 760.048,514.386C760.094,514.553 760.104,514.738 760.076,514.943C760.055,515.101 760.015,515.243 759.955,515.37C759.896,515.497 759.824,515.604 759.739,515.692L759.119,515.58L759.153,515.327L759.897,515.258L759.716,515.541L759.506,515.518C759.621,515.416 759.707,515.318 759.762,515.224C759.816,515.129 759.852,515.02 759.869,514.898C759.883,514.791 759.879,514.69 759.855,514.595C759.831,514.501 759.786,514.422 759.72,514.358C759.654,514.294 759.567,514.255 759.459,514.24C759.366,514.228 759.284,514.239 759.214,514.273C759.143,514.307 759.079,514.361 759.019,514.436C758.96,514.51 758.903,514.596 758.85,514.695L758.751,514.862C758.659,515.025 758.566,515.163 758.47,515.276C758.374,515.389 758.27,515.471 758.157,515.521C758.045,515.572 757.909,515.586 757.752,515.565C757.58,515.542 757.435,515.476 757.318,515.367C757.202,515.258 757.119,515.116 757.072,514.942C757.024,514.767 757.016,514.564 757.048,514.33Z" style="fill:rgb(51,51,51);fill-rule:nonzero;"/>
            <path d="M756.43,516.792C756.494,516.631 756.576,516.482 756.676,516.347C756.777,516.212 756.88,516.103 756.987,516.02L757.595,516.297L757.499,516.539L756.74,516.407L756.973,516.173L757.143,516.246C757.057,516.313 756.982,516.376 756.916,516.433C756.851,516.491 756.795,516.554 756.749,516.621C756.702,516.688 756.661,516.767 756.625,516.858C756.575,516.986 756.549,517.104 756.549,517.213C756.549,517.322 756.575,517.417 756.628,517.499C756.682,517.58 756.762,517.642 756.87,517.685C756.964,517.722 757.048,517.731 757.122,517.712C757.196,517.693 757.268,517.653 757.338,517.593C757.409,517.534 757.484,517.457 757.563,517.364L757.703,517.233C757.812,517.116 757.924,517.016 758.039,516.931C758.154,516.846 758.277,516.792 758.407,516.768C758.538,516.743 758.678,516.761 758.83,516.821C758.991,516.885 759.113,516.982 759.196,517.112C759.279,517.242 759.323,517.394 759.328,517.568C759.333,517.741 759.298,517.924 759.222,518.115C759.163,518.263 759.09,518.392 759.002,518.501C758.914,518.61 758.818,518.697 758.715,518.761L758.139,518.504L758.234,518.267L758.972,518.378L758.729,518.609L758.53,518.536C758.667,518.465 758.773,518.391 758.849,518.312C758.925,518.233 758.986,518.136 759.031,518.022C759.071,517.921 759.091,517.822 759.091,517.725C759.09,517.627 759.066,517.54 759.017,517.462C758.968,517.384 758.893,517.325 758.792,517.285C758.704,517.25 758.622,517.241 758.546,517.258C758.469,517.274 758.393,517.311 758.318,517.369C758.242,517.426 758.167,517.497 758.091,517.579L757.955,517.718C757.827,517.854 757.703,517.966 757.583,518.052C757.463,518.139 757.342,518.193 757.22,518.215C757.099,518.237 756.964,518.219 756.816,518.16C756.654,518.096 756.53,517.997 756.443,517.863C756.356,517.73 756.31,517.572 756.306,517.391C756.302,517.211 756.343,517.011 756.43,516.792Z" style="fill:rgb(51,51,51);fill-rule:nonzero;"/>
            <path d="M755.103,520.008L755.48,519.937L755.697,521.059L756.696,520.512L756.88,520.84L755.89,521.394L756.748,522.193L756.474,522.487L755.616,521.688L755.134,522.715L754.794,522.554L755.268,521.52L754.134,521.383L754.178,521.002L755.324,521.141L755.103,520.008Z" style="fill:rgb(51,51,51);fill-rule:nonzero;"/>
            <path d="M752.221,522.203L752.284,522.365L751.863,522.6L751.767,522.638L751.329,522.74L751.266,522.578L752.221,522.203ZM751.837,522.354L752.896,525.058L752.709,525.131L752.193,523.888L751.624,522.437L751.837,522.354ZM752.678,524.916L753.214,524.782L753.277,524.944L752.726,525.159L752.637,524.932L752.678,524.916ZM750.684,522.806L752.738,524.922L752.799,524.898L752.878,525.1L752.393,525.29L750.542,523.38L750.674,523.329L750.675,523.421L750.654,525.972L750.447,526.053L750.376,525.871L750.436,525.847L750.439,525.706L750.457,522.895L750.684,522.806ZM749.891,523.117L749.954,523.278L749.48,523.54L749.323,523.602L748.746,523.752L748.683,523.59L749.891,523.117ZM749.557,523.247C749.626,523.442 749.703,523.651 749.788,523.874C749.874,524.097 749.96,524.314 750.046,524.525L750.614,525.988L750.119,526.182C750.05,525.987 749.974,525.78 749.89,525.56C749.805,525.34 749.721,525.123 749.637,524.907L749.565,524.725C749.481,524.51 749.394,524.291 749.305,524.069C749.216,523.847 749.13,523.64 749.047,523.447L749.557,523.247ZM750.328,525.837L750.417,526.065L749.76,526.322L749.696,526.161L750.216,525.881L750.328,525.837Z" style="fill:rgb(51,51,51);fill-rule:nonzero;"/>
            <path d="M748.174,523.675L748.169,523.848L747.69,523.9L747.587,523.897L747.144,523.819L747.149,523.645L748.174,523.675ZM747.762,523.663L747.679,526.566L747.478,526.56L747.49,525.214L747.534,523.656L747.762,523.663ZM747.533,526.35L748.079,526.436L748.074,526.61L747.483,526.593L747.49,526.349L747.533,526.35ZM746.525,523.628L747.587,526.379L747.652,526.38L747.646,526.597L747.125,526.583L746.169,524.101L746.31,524.105L746.275,524.191L745.258,526.529L745.036,526.523L745.041,526.328L745.106,526.329L745.164,526.201L746.281,523.621L746.525,523.628ZM745.673,523.603L745.668,523.777L745.129,523.832L744.961,523.827L744.371,523.74L744.376,523.566L745.673,523.603ZM745.315,523.593C745.302,523.799 745.291,524.021 745.282,524.26C745.274,524.499 745.268,524.732 745.265,524.96L745.215,526.528L744.683,526.513C744.696,526.307 744.707,526.086 744.715,525.851C744.724,525.616 744.731,525.383 744.738,525.151L744.744,524.956C744.75,524.725 744.756,524.489 744.761,524.251C744.766,524.012 744.768,523.787 744.767,523.577L745.315,523.593ZM745.01,526.278L745.003,526.522L744.298,526.502L744.303,526.328L744.891,526.274L745.01,526.278Z" style="fill:rgb(51,51,51);fill-rule:nonzero;"/>
            <path d="M744.089,523.437L744.025,523.598L743.581,523.482L743.47,523.438L743.08,523.227L743.144,523.065L744.089,523.437ZM743.846,523.341L742.296,524.377L742.122,524.198L742.182,524.222L742.277,524.16L743.609,523.248L743.846,523.341ZM742.543,525.722L743.043,525.994L742.98,526.156L741.737,525.668L741.8,525.506L742.377,525.657L742.543,525.722ZM742.588,522.847L742.525,523.009L741.938,522.854L741.776,522.791L741.261,522.513L741.325,522.351L742.588,522.847ZM742.048,524.221L742.197,524.391L742.152,524.373L742.047,524.448L740.822,525.309L740.585,525.215L742.048,524.221ZM742.088,522.651L742.757,526.069L742.212,525.854L741.542,522.436L742.088,522.651ZM740.978,525.119L741.366,525.335L741.302,525.497L740.357,525.126L740.421,524.964L740.867,525.075L740.978,525.119Z" style="fill:rgb(51,51,51);fill-rule:nonzero;"/>
            <path d="M741.156,522.252L741.048,522.388L740.657,522.147L740.563,522.073L740.252,521.757L740.36,521.621L741.156,522.252ZM740.951,522.09L739.167,522.628L739.052,522.406L739.103,522.446L739.211,522.414L740.752,521.932L740.951,522.09ZM739.01,523.987L739.409,524.393L739.301,524.529L738.255,523.699L738.362,523.563L738.87,523.876L739.01,523.987ZM739.893,521.25L739.785,521.386L739.269,521.067L739.133,520.959L738.721,520.543L738.829,520.407L739.893,521.25ZM738.975,522.407L739.068,522.613L739.03,522.582L738.907,522.623L737.485,523.089L737.285,522.93L738.975,522.407ZM739.472,520.916L739.114,524.381L738.654,524.016L739.012,520.552L739.472,520.916ZM737.689,522.953L737.997,523.273L737.889,523.409L737.094,522.778L737.201,522.642L737.596,522.879L737.689,522.953Z" style="fill:rgb(51,51,51);fill-rule:nonzero;"/>
            <path d="M736.371,521.593L736.643,522.086L736.502,522.188L735.73,521.126L735.879,521.017L736.266,521.448L736.371,521.593ZM738.077,519.324L736.355,521.986L736.02,521.525L737.411,519.433L737.45,519.486L737.401,519.501L735.04,520.178L734.903,519.989L737.931,519.123L738.077,519.324ZM735.246,520.055L735.477,520.464L735.327,520.573L734.73,519.752L734.871,519.65L735.192,519.98L735.246,520.055Z" style="fill:rgb(51,51,51);fill-rule:nonzero;"/>
            <path d="M736.091,516.414L735.948,516.771L734.886,516.349L734.809,517.485L734.433,517.464L734.5,516.331L733.365,516.623L733.265,516.234L734.4,515.942L733.794,514.982L734.113,514.783L734.729,515.739L735.455,514.857L735.753,515.1L735.018,515.99L736.091,516.414Z" style="fill:rgb(51,51,51);fill-rule:nonzero;"/>
        </g>
    </g>
</svg>
